<?xml version="1.0" encoding="utf-8"?>
<!-- Generator: Adobe Adobe Illustrator 24.2.0, SVG Export Plug-In . SVG Version: 6.00 Build 0)  -->
<svg version="1.1" id="レイヤー_1" xmlns="http://www.w3.org/2000/svg" xmlns:xlink="http://www.w3.org/1999/xlink" x="0px"
	 y="0px" width="300px" height="100px" viewBox="0 0 300 100" style="enable-background:new 0 0 300 100;" xml:space="preserve">
<style type="text/css">
	.st0{fill:#FFFFFF;stroke:#000000;stroke-miterlimit:10;}
</style>
<path d="M38.04,34.27c-1.01,4.83-1.51,9.53-1.62,14.18c-0.68-0.48-1.38-0.86-2.14-0.98c-3.23-0.9-6.47,0.27-9.42,2.32
	c-0.34-5.04-1.11-10-2.35-15.65c-1.63,6.52-2.77,13.56-2.43,20.57c0.48,5.72,1.6,11.53,3.64,16.41c0.17,0.38,0.38,0.72,0.6,1.02
	c-0.13-1.54,0.06-3.09,0.19-4.61c0.52-5.88,0.68-10.92,0.45-15.79c2.3,1.06,4.76,1.47,7.12,0.81c1.46-0.49,2.89-1.15,4.32-1.84
	c0.04,7.04,0.98,14.02,2.48,21.24C42.34,59.57,41.29,46.45,38.04,34.27z"/>
<path d="M57.33,58.33c-0.93-5.77-4.02-11.19-8.07-15.65c0.02,6.07,0.29,9.56,1.29,14.69c0.01,0.06,0.03,0.12,0.05,0.19
	c-0.86-0.12-1.74-0.06-2.58,0.16c0.03-0.12,0.06-0.25,0.09-0.37c0.89-5.12,1.13-8.61,1.15-14.66c-3.59,4.45-6.34,9.85-7.16,15.61
	c-0.7,3.95-0.23,7.93,0.18,11.88c0.05,0.48,0.09,0.96,0.15,1.44c0.98-1.44,1.82-2.97,2.47-4.6c1.05-2.69,2.13-5.4,2.86-8.21
	c1.04,0.17,2.09,0.19,3.15-0.09c0.83,2.86,2.06,5.62,3.27,8.36c0.73,1.63,1.68,3.16,2.78,4.61c0.06-0.48,0.11-0.96,0.16-1.45
	C57.59,66.28,58.12,62.28,57.33,58.33z"/>
<path d="M80.28,41.95c-2.19-3.24-5.74-5.66-9.21-6.26c-3.5-0.45-6.98,1.77-9.44,4.61c-0.41-1.32-0.86-2.62-1.36-3.9
	c-2.67,9.98-3.18,20.33,0.73,29.97c0.64,1.73,1.35,3.44,2.15,5.07c0.01-0.01,0.01-0.01,0.02-0.02c0.01,0.03,0.01,0.07,0.03,0.1
	c0.2,0.25,0.59,0.07,0.58-0.29c0.14-1.25,0.29-2.49,0.39-3.75c0.2-2.04,0.31-4.1,0.34-6.15c2.78,1.42,5.85,1.92,8.74,0.76
	c0.4,3.39,1.77,6.8,4.33,8.56c-0.79-3.22-1.97-6.3-3.94-8.73c0.28-0.13,0.55-0.26,0.82-0.42c3.16-1.52,6.16-4.25,7.24-8.23
	C82.54,49.53,82.34,45.11,80.28,41.95z M69.57,55.58c-1.49,1.37-3.26,1.99-5.08,2.43c-0.17-5.97-1.08-11.89-2.8-17.5
	c2.32-0.38,4.73-0.3,6.99,0.49c1.1,0.47,1.97,1.53,2.75,2.54c1.21,1.68,2.23,2.65,2.03,4.78c0.03,0.49-0.11,1-0.04,1.48
	c0.02,0.13,0,0.26-0.06,0.39c-0.14,0.27-0.15,0.38-0.03,0.35c0.11-0.03,0.07,0.06-0.09,0.25C72.32,52.65,70.94,54.18,69.57,55.58z"
	/>
<path d="M95.11,48.38c-0.31-0.53-0.56-1.22-1.08-1.57c0.13,0.5,0.12,1.01,0.1,1.53c-0.14,2.97-0.99,5.85-1.95,8.65
	c-0.75,2.1-1.56,4.28-2.89,6.1c-0.8-1.75-1.33-3.63-1.93-5.45C86,53.41,84.68,49.15,83,45.02c-0.78,7.01-1.76,14.35,0.41,21.21
	c1.89,5.91,7.65,6.34,11.08,1.36C97.88,62.12,97.81,54.1,95.11,48.38z"/>
<path d="M101.01,35.79c-1.96,5.88-2.92,12.26-2.46,18.43c0.51,6.45,3.37,12.34,6.25,18.06c0.23,0.45,0.23,0.62,0.34-0.04
	c0.6-2.61,0.63-5.3,0.7-7.96C106.23,54.54,104.27,44.94,101.01,35.79z"/>
<path d="M118.25,35.68c-1.17,4.9-2.3,9.83-2.47,14.9c-0.11,2.34,0.07,4.68,0.4,7c-0.84-1.98-1.72-4-2.93-6.29
	c-3.18-6.04-7.68-11.27-12.72-15.61c2.3,8.29,5.26,16.7,10.98,23.05c1.77,1.87,3.69,3.89,5.91,5.2c0.3,1.17,0.65,2.32,0.88,3.51
	c0.14,0.68,0.15,1.37,0.05,2.05c0.11-0.08,0.22-0.16,0.33-0.25c1.99-2.14,2.36-5.36,3.01-8.17C123.46,52.54,122,43.41,118.25,35.68z
	"/>
<path d="M137.95,58.75c-0.87-5.38-3.77-10.42-7.57-14.57c0.02,5.65,0.28,8.9,1.21,13.68c0.01,0.06,0.03,0.11,0.05,0.17
	c-0.8-0.12-1.63-0.06-2.41,0.15c0.03-0.12,0.06-0.23,0.08-0.35c0.83-4.77,1.06-8.01,1.08-13.65c-3.37,4.14-5.94,9.17-6.72,14.54
	c-0.66,3.68-0.22,7.39,0.17,11.06c0.05,0.45,0.09,0.9,0.14,1.34c0.92-1.34,1.71-2.77,2.32-4.28c0.99-2.51,2-5.03,2.69-7.65
	c0.97,0.16,1.96,0.18,2.95-0.09c0.78,2.66,1.93,5.23,3.06,7.78c0.69,1.52,1.58,2.95,2.61,4.29c0.06-0.45,0.1-0.9,0.15-1.35
	C138.2,66.15,138.69,62.43,137.95,58.75z"/>
<path d="M180.67,71.98c-2.79-8.29-8.82-14.82-16.25-18.59c2.55-1.49,4.96-3.27,7.03-5.43c2.74-3.25,5.12-6.89,6.85-10.85
	c-6.26,1.84-11.48,6.18-14.91,11.83c-0.76-4.46-2.07-8.83-3.83-12.96c-3.33,13.24-2.14,23.39,2.59,35.98
	c1.37-4.48,2.01-9.12,2.03-13.77C168.19,64.38,173.87,68.96,180.67,71.98z"/>
<path d="M187.22,56.28c-0.38-5.16-1.77-10.23-4.01-14.89c-3.04,9.84-3.03,20.58,2.93,29.34C186.81,65.95,187.39,61.11,187.22,56.28z
	"/>
<path d="M197.9,39.59c1.29-0.14,2.45,0.73,3.49,1.4c2.19,1.59,4.05,3.59,5.39,5.94c-0.92-14.98-17.52-19.67-16.65-1.2
	c0.14,3.68,1.17,7.25,2.9,10.5c1.55,3.05,3.76,5.77,4.99,8.98c0.29,0.87,0.61,1.76,0.59,2.68c-0.37-0.22-0.78-0.26-1.23-0.12
	c-0.72-0.12-1.46-0.21-2.15-0.47c-1.12-0.37-2.21-0.83-3.27-1.32c0.74,0.98,1.53,1.93,2.42,2.79c5.35,4.98,9.95,1.83,9.2-5.06
	c-0.36-5.34-3.28-9.99-4.53-15.12c-0.72-2.82-1.36-5.74-1.21-8.66C197.83,39.82,197.87,39.71,197.9,39.59z"/>
<path d="M274.15,49.97c-1.33-1.85-3.81-4.56-6.2-4.21c0.09-0.38,0.17-0.75,0.28-1.13c-4.55,3.08-7.96,8.55-8.25,14.38
	c-0.36,6.4,4.06,13.59,10.65,11.13C277.77,67.04,278.75,55.91,274.15,49.97z M268.41,60.09c-1.23-2.36-1.52-5.12-1.33-7.8
	c0.09-2.01,0.29-4.01,0.71-5.97c1.63,1.14,2,3.92,2.3,5.83C270.36,54.78,270.09,58.03,268.41,60.09z"/>
<path d="M220.76,41.25c-0.77,3.94-1.15,7.77-1.23,11.56c-0.52-0.39-1.06-0.7-1.63-0.8c-2.46-0.74-4.93,0.22-7.18,1.9
	c-0.26-4.11-0.85-8.16-1.79-12.77c-1.24,5.32-2.11,11.06-1.85,16.78c0.37,4.66,1.22,9.41,2.77,13.39c0.13,0.31,0.29,0.59,0.46,0.83
	c-0.1-1.25,0.05-2.52,0.14-3.76c0.4-4.8,0.52-8.91,0.34-12.88c1.75,0.86,3.63,1.2,5.42,0.66c1.11-0.4,2.2-0.94,3.29-1.5
	c0.03,5.75,0.75,11.43,1.89,17.32C224.03,61.89,223.23,51.18,220.76,41.25z"/>
<path d="M233.22,56.28c-0.38-5.16-1.77-10.23-4.01-14.89c-3.04,9.84-3.03,20.58,2.93,29.34C232.81,65.95,233.39,61.11,233.22,56.28z
	"/>
<path d="M238.01,34.79c-1.96,5.88-2.92,12.26-2.46,18.43c0.51,6.45,3.37,12.34,6.25,18.06c0.23,0.45,0.23,0.62,0.34-0.04
	c0.6-2.61,0.63-5.3,0.7-7.96C243.23,53.54,241.27,43.94,238.01,34.79z"/>
<path d="M255.25,34.68c-1.17,4.9-2.3,9.83-2.47,14.9c-0.11,2.34,0.07,4.68,0.4,7c-0.84-1.98-1.72-4-2.93-6.29
	c-3.18-6.04-7.68-11.27-12.72-15.61c2.3,8.29,5.26,16.7,10.98,23.05c1.77,1.87,3.69,3.89,5.91,5.2c0.3,1.17,0.65,2.32,0.88,3.51
	c0.14,0.68,0.15,1.37,0.05,2.05c0.11-0.08,0.22-0.16,0.33-0.25c1.99-2.14,2.36-5.36,3.01-8.17C260.46,51.54,259,42.41,255.25,34.68z
	"/>
</svg>
